<svg width="1440" height="92" viewBox="0 0 1440 92" fill="none" xmlns="http://www.w3.org/2000/svg">
<path fill-rule="evenodd" clip-rule="evenodd" d="M764.87 3.9808C737.605 -4.34414 720.846 1.43478 708.981 11.6747C676.044 40.0958 670.545 1.1367 638.795 13.3575C574.241 34.1096 563.453 72.2787 522.539 64.3807C478.85 55.9464 464.203 10.2351 419.449 16.0119C351.806 24.7431 315.71 55.402 247.975 18.2589C191.449 -12.7382 167.364 1.79364 151.06 19.7655C77.1873 101.198 94.7581 -0.667853 46.8731 19.9202C25.184 29.2465 10.6283 40.3227 -2 49.2148V109H764.87V3.9808Z" fill="#00CCFF"/>
<path fill-rule="evenodd" clip-rule="evenodd" d="M721.641 3.9808C748.906 -4.34414 765.665 1.43478 777.53 11.6747C810.467 40.0958 815.966 1.1367 847.717 13.3575C912.27 34.1096 923.058 72.2787 963.973 64.3807C1007.66 55.9464 1022.31 10.2351 1067.06 16.0119C1134.71 24.7431 1170.8 55.402 1238.54 18.2589C1295.06 -12.7382 1319.15 1.79364 1335.45 19.7655C1409.32 101.198 1391.75 -0.667853 1439.64 19.9202C1461.33 29.2465 1475.88 40.3227 1488.51 49.2148V109H721.641V3.9808Z" fill="#00CCFF"/>
</svg>
