<svg width="174" height="177" viewBox="0 0 174 177" fill="none" xmlns="http://www.w3.org/2000/svg">
<path fill-rule="evenodd" clip-rule="evenodd" d="M153.284 87.4617C154.954 78.8417 160.176 75.6338 164.427 68.8204C169.751 60.2856 174.605 49.5716 173.938 39.1733C170.76 14.9235 148.978 -1.4955 126.115 0.107902C118.134 0.667732 107.985 5.35419 102.441 11.4215C86.7063 28.7773 84.1317 32.8085 60.349 32.5632C45.7754 32.4769 22.5121 33.5308 14.7379 49.0163C8.50269 66.5652 30.9077 84.9646 21.3358 100.72C19.9158 103.059 18.8848 102.571 16.8251 104.228C7.67423 111.415 -1.19396 114.818 0.132265 129.095C1.58779 144.764 16.8422 149.903 29.5415 151.238C58.2149 154.028 70.5491 144.016 99.4823 159.94C112.513 167.306 129.728 180.431 145.033 176.167C157.456 172.705 169.568 158.258 171.999 145.098C173.47 137.13 172.846 128.107 168.384 121.287C163.189 113.347 155.523 108.521 153.108 98.6856C152.282 94.7588 152.612 91.3692 153.284 87.4617Z" fill="#EEECEC"/>
</svg>
