<svg width="178" height="106" viewBox="0 0 178 106" fill="none" xmlns="http://www.w3.org/2000/svg">
<g clip-path="url(#clip0)">
<path fill-rule="evenodd" clip-rule="evenodd" d="M84.731 19.2118C91.8832 20.1119 98.5668 23.2528 103.851 28.1973C110.424 34.3463 114.349 42.9724 114.625 51.9482C115.149 68.773 103.191 83.3732 86.8168 86.4558L87.2495 100.36C87.3114 102.38 86.2994 104.213 84.5455 105.236C82.7981 106.263 80.6928 106.256 78.9487 105.223L2.68221 59.9979C1.05522 59.033 0.0627626 57.3557 0.00419117 55.4712C-0.0543802 53.5769 0.824191 51.8575 2.39586 50.789L75.7142 0.965485C77.3933 -0.174299 79.4888 -0.310297 81.3013 0.606065C83.1072 1.51919 84.2396 3.29363 84.3014 5.31091L84.731 19.215V19.2118ZM82.0497 21.718C98.2284 22.5404 111.371 35.6383 111.882 52.0324C112.39 68.4233 100.083 82.3047 83.9891 84.1212C83.9988 84.1989 84.0053 84.2799 84.0086 84.3608L84.5097 100.447C84.5422 101.471 84.0444 102.367 83.156 102.886C82.2677 103.407 81.2427 103.404 80.3576 102.879L4.09117 57.6536C3.26141 57.1614 2.78308 56.3519 2.75379 55.3902C2.72451 54.4285 3.15078 53.5899 3.948 53.0491L77.2664 3.22563C78.1156 2.64926 79.1406 2.58126 80.0615 3.04754C80.9791 3.51381 81.5291 4.37513 81.5616 5.39834L82.0627 21.4848C82.066 21.5658 82.066 21.6435 82.0595 21.7245L82.0497 21.718Z" fill="#003399"/>
<path d="M5.49345 55.2992L81.7599 100.525L81.262 84.4382C63.8729 84.898 49.3634 71.2853 48.8265 53.9651C48.2896 36.6449 61.927 22.1645 79.3097 21.559L78.8086 5.47247L5.49345 55.296V55.2992Z" fill="#FFCC00"/>
<path d="M81.3082 81.5713C97.1677 81.084 109.627 67.8953 109.138 52.1135C108.648 36.3317 95.3944 23.933 79.5349 24.4203C63.6754 24.9076 51.2157 38.0963 51.7054 53.8781C52.1951 69.6599 65.4487 82.0586 81.3082 81.5713Z" fill="#003399"/>
<path fill-rule="evenodd" clip-rule="evenodd" d="M163.103 44.7431C163.783 43.5742 165.201 42.9654 166.562 43.3605L171.761 44.8662C173.961 45.5041 176.04 46.6536 177.163 48.7226C178.266 50.7497 178.152 53.0584 177.524 55.2117L177.124 56.5781C176.665 58.1453 175.926 59.5636 174.862 60.6192C174.905 60.8037 174.941 60.9948 174.967 61.189C175.175 62.7012 174.908 64.2781 174.482 65.732L173.34 69.6371C173.222 70.0386 173.102 70.466 173.027 70.8805C173.008 70.9873 173.011 71.0974 173.027 71.201C173.17 72.2404 172.806 73.1989 172.005 73.8821C171.208 74.5686 170.203 74.7855 169.191 74.4909L165.618 73.4579C164.905 73.2507 164.323 72.8168 163.939 72.2404C163.314 72.5157 162.588 72.5804 161.886 72.3764L158.375 71.3597C157.35 71.065 156.601 70.2685 156.321 69.3165C154.717 69.8605 152.98 69.8378 151.287 69.4784L145.668 68.2739C144.679 68.0634 143.904 67.3866 143.53 66.5221C142.04 67.1632 140.38 67.296 138.708 67.0725C136.931 66.8362 135.275 66.2145 133.976 65.0714C133.42 65.5086 132.73 65.7223 131.975 65.6867L128.259 65.4989C127.517 65.46 126.85 65.1718 126.343 64.6991C125.796 65.1103 125.109 65.337 124.374 65.3013L120.723 65.1168C120.407 65.1006 120.101 65.0358 119.818 64.9322C119.483 65.0553 119.125 65.12 118.748 65.1168L108.778 65.0164C108.53 65.0132 108.286 64.9808 108.055 64.9225C107.788 65.0099 107.505 65.0585 107.209 65.0714L103.392 65.2366C102.484 65.2754 101.651 64.929 101.066 64.3105C100.539 64.9613 99.7446 65.3952 98.8433 65.4341L95.1923 65.5928C94.2096 65.6349 93.3115 65.201 92.7291 64.4951C91.3526 65.6575 89.615 66.2339 87.7603 66.3893C85.8534 66.548 83.9889 66.2436 82.4075 65.2592C82.004 66.2274 81.1059 66.9624 79.993 67.1017L76.3649 67.5582C75.06 67.7201 73.8398 67.024 73.2834 65.9166C73.0328 67.0693 72.1054 68.0213 70.8689 68.2447L67.27 68.8923C65.6333 69.187 64.0551 68.0958 63.7623 66.467L63.554 65.324C63.4206 66.0461 63.1863 66.7552 62.8349 67.4384C61.7188 69.5982 59.7208 70.8805 57.4105 71.5184C55.1165 72.153 52.7508 72.0785 50.7008 70.7801C48.7029 69.5173 47.5575 67.4741 46.936 65.2528L46.5813 63.977C46.1355 62.3806 47.0792 60.7195 48.6834 60.2759L49.1454 60.1464C48.1107 59.5312 47.1247 58.8253 46.308 57.9996C45.0422 56.7238 44.1896 55.1663 43.7081 53.4437C43.0866 51.2224 43.054 48.891 44.1311 46.7993C45.2374 44.6524 47.2191 43.3799 49.5099 42.7453C51.677 42.1462 53.8962 42.1948 55.8551 43.3054C56.0699 42.1009 57.0168 41.0971 58.2923 40.8672L69.4111 38.8693C70.088 38.7463 70.755 38.8629 71.3245 39.1543C71.7149 38.879 72.1803 38.6912 72.6879 38.6265L76.3161 38.1699C77.5395 38.0177 78.6882 38.62 79.2837 39.6076C80.761 37.7393 82.9184 36.8682 85.2612 36.6707C87.4414 36.4894 89.5727 36.9168 91.281 38.2703C91.7268 37.2471 92.7323 36.5088 93.9233 36.4602L97.5742 36.3016C98.5049 36.2627 99.3574 36.6481 99.9399 37.2859C100.474 36.5736 101.284 36.1397 102.221 36.1008L105.872 35.9454C106.451 35.9195 106.991 36.0458 107.463 36.3048C107.932 36.0166 108.482 35.8547 109.07 35.8612L119.041 35.9616C119.597 35.9681 120.114 36.1235 120.56 36.389C121.045 36.1138 121.608 35.9681 122.203 36.0004L127.615 36.2724C129.902 36.389 132.193 37.0301 133.765 38.7851C134.256 39.3324 134.634 39.9346 134.913 40.5725C135.284 40.0577 135.724 39.5817 136.238 39.1608C138.102 37.6195 140.426 37.2212 142.785 37.5353C145.137 37.8461 147.266 38.8467 148.626 40.8445C148.655 40.8899 148.688 40.9352 148.717 40.9805C149.394 40.0253 150.604 39.5105 151.821 39.7727L157.213 40.9255C159.452 41.4047 161.609 42.4053 162.878 44.3902C162.953 44.51 163.025 44.6298 163.093 44.7496L163.103 44.7431ZM146.332 50.9018L146.032 50.863C146.11 50.9698 146.192 51.0799 146.27 51.19L146.332 50.9018ZM134.767 52.1614C134.871 52.537 134.949 52.9256 135.005 53.3142C135.04 53.3174 135.079 53.3206 135.115 53.3271L135.594 53.3886C135.301 52.9904 135.024 52.5824 134.767 52.1614ZM118.715 45.2677L115.66 45.2385V45.3454L117.658 45.3648C118.025 45.3681 118.377 45.4393 118.702 45.5623L118.715 45.2709V45.2677ZM118.237 54.6126C118.019 54.6612 117.794 54.6839 117.56 54.6806L115.562 54.6612L115.552 55.7589L118.178 55.7848L118.237 54.6126V54.6126ZM105.953 46.3071L105.283 47.7674L105.921 49.5872L105.953 46.3071ZM91.5088 50.3384L88.372 50.6007C88.154 50.6201 87.9425 50.6137 87.7342 50.5877L87.8058 51.4199C88.0076 51.3584 88.2158 51.3195 88.4338 51.3001L91.5414 51.0411L91.5121 50.3384H91.5088ZM70.8494 48.0686L70.2962 48.1689L72.1803 58.5436L70.8494 48.0686ZM60.1959 49.9855C60.6124 51.5689 59.672 53.2041 58.0808 53.6444L57.7554 53.7351C58.826 54.3665 59.8445 55.1016 60.671 55.9661C61.3088 56.6331 61.8327 57.3779 62.2589 58.1744L60.7556 49.8883L60.1959 49.9887V49.9855Z" fill="#003399"/>
<path fill-rule="evenodd" clip-rule="evenodd" d="M162.849 42.6286C163.529 41.4597 164.951 40.8509 166.308 41.246L171.508 42.7517C173.707 43.3863 175.787 44.539 176.912 46.6081C178.016 48.6351 177.902 50.9439 177.274 53.0971L176.873 54.4636C176.415 56.0276 175.676 57.4491 174.612 58.5047C174.654 58.6892 174.69 58.8803 174.716 59.0745C174.924 60.5867 174.657 62.1636 174.231 63.6175L173.089 67.5226C172.972 67.9241 172.852 68.3515 172.777 68.766C172.757 68.8728 172.76 68.9829 172.777 69.0865C172.92 70.1259 172.555 71.0844 171.755 71.7676C170.958 72.4541 169.949 72.671 168.937 72.3764L165.364 71.3434C164.648 71.1362 164.066 70.7023 163.685 70.1292C163.06 70.4012 162.338 70.4692 161.632 70.2652L158.121 69.2484C157.096 68.9538 156.347 68.1572 156.068 67.2052C154.467 67.7492 152.726 67.7266 151.034 67.3671L145.411 66.1658C144.422 65.9554 143.647 65.2754 143.273 64.4141C141.783 65.0552 140.126 65.1879 138.451 64.9645C136.674 64.7281 135.018 64.1064 133.723 62.9634C133.163 63.4006 132.473 63.6143 131.721 63.5786L128.005 63.3908C127.263 63.352 126.596 63.0638 126.089 62.5943C125.542 63.0023 124.855 63.2322 124.12 63.1966L120.469 63.012C120.15 62.9958 119.848 62.931 119.565 62.8274C119.229 62.9505 118.868 63.0152 118.494 63.012L108.524 62.9116C108.277 62.9084 108.032 62.876 107.801 62.8177C107.538 62.9051 107.255 62.9537 106.955 62.9667L103.139 63.1318C102.231 63.1707 101.398 62.8242 100.812 62.2057C100.285 62.8566 99.4908 63.2905 98.5895 63.3293L94.9385 63.488C93.9526 63.5301 93.0577 63.0962 92.4753 62.3903C91.0988 63.5527 89.3612 64.1291 87.5097 64.2845C85.6029 64.4432 83.7384 64.1356 82.1537 63.1512C81.7534 64.1194 80.8521 64.8544 79.7392 64.9937L76.1111 65.4502C74.8062 65.6121 73.586 64.9159 73.0296 63.8085C72.779 64.9613 71.8516 65.9133 70.6151 66.1367L67.0162 66.7843C65.3795 67.0789 63.8013 65.991 63.5052 64.359L63.2969 63.216C63.1635 63.9381 62.9292 64.6472 62.5778 65.3304C61.4617 67.4934 59.4638 68.7724 57.1567 69.4103C54.8627 70.045 52.497 69.9705 50.447 68.6721C48.4491 67.4092 47.3037 65.366 46.6822 63.1447L46.3275 61.869C45.8817 60.2726 46.8254 58.6115 48.4296 58.1679L48.8916 58.0384C47.8569 57.4232 46.8709 56.7173 46.0542 55.8916C44.7884 54.6158 43.9358 53.0583 43.4542 51.3357C42.8327 49.1144 42.8002 46.783 43.8805 44.6912C44.9869 42.5444 46.9685 41.2719 49.2593 40.6372C51.4232 40.0382 53.6457 40.0868 55.6046 41.1974C55.8193 39.9929 56.7662 38.9891 58.0418 38.7592L69.1606 36.7613C69.8374 36.6383 70.5045 36.7548 71.0739 37.0463C71.4644 36.771 71.9297 36.5832 72.4373 36.5185L76.0655 36.0619C77.2857 35.9097 78.4344 36.512 79.0331 37.4996C80.5104 35.6312 82.6678 34.7602 85.0074 34.5627C87.1908 34.3814 89.3189 34.8088 91.0272 36.1623C91.473 35.1391 92.4785 34.4008 93.6695 34.3522L97.3204 34.1936C98.2511 34.1547 99.1036 34.54 99.6861 35.1779C100.216 34.4655 101.03 34.0317 101.967 33.9928L105.618 33.8341C106.197 33.8082 106.737 33.9345 107.209 34.1936C107.678 33.9054 108.228 33.7435 108.817 33.7499L118.787 33.8503C119.343 33.8568 119.861 34.0122 120.306 34.2777C120.791 34.0025 121.354 33.8568 121.95 33.8892L127.361 34.1612C129.649 34.2777 131.939 34.9189 133.511 36.6739C134.002 37.2211 134.38 37.8234 134.663 38.4613C135.034 37.9464 135.473 37.4737 135.987 37.0495C137.852 35.5082 140.175 35.1099 142.534 35.424C144.89 35.7349 147.018 36.7354 148.375 38.7333C148.404 38.7786 148.437 38.8239 148.466 38.8693C149.143 37.914 150.354 37.4024 151.571 37.6615L156.966 38.8142C159.204 39.2934 161.362 40.294 162.631 42.2757C162.706 42.3955 162.777 42.5153 162.846 42.6351L162.849 42.6286ZM146.078 48.7873L145.779 48.7485C145.86 48.8553 145.938 48.9654 146.016 49.0755L146.078 48.7873ZM134.513 50.0469C134.617 50.4225 134.695 50.8111 134.751 51.1997C134.787 51.2029 134.826 51.2061 134.861 51.2126L135.34 51.2741C135.047 50.8759 134.77 50.4679 134.517 50.0469H134.513ZM118.461 43.1532L115.406 43.124L115.403 43.2309L117.401 43.2503C117.768 43.2536 118.12 43.3248 118.442 43.4478L118.458 43.1564L118.461 43.1532ZM117.983 52.4981C117.765 52.5467 117.541 52.5694 117.306 52.5661L115.308 52.5467L115.299 53.6444L117.921 53.6703L117.98 52.4981H117.983ZM105.699 44.1926L105.029 45.6529L105.667 47.4727L105.699 44.1926ZM91.255 48.2239L88.1182 48.4862C87.9002 48.5056 87.6887 48.4992 87.4804 48.4732L87.552 49.3054C87.7538 49.2439 87.962 49.205 88.18 49.1856L91.2876 48.9266L91.2583 48.2239H91.255ZM70.5956 45.9573L70.0424 46.0577L71.9265 56.4323L70.5988 45.9573H70.5956ZM59.9421 47.871C60.3586 49.4544 59.4182 51.0896 57.827 51.5299L57.5016 51.6206C58.5722 52.252 59.5907 52.9871 60.4172 53.8516C61.055 54.5186 61.5788 55.2634 62.0051 56.0599L60.5018 47.7738L59.9421 47.8742V47.871Z" fill="#FEFEFE"/>
<path fill-rule="evenodd" clip-rule="evenodd" d="M159.65 59.6153L164.277 43.7879C164.469 43.137 165.156 42.7614 165.81 42.9492L171.01 44.4549C172.725 44.9536 174.459 45.8246 175.341 47.4501C176.21 49.0432 176.05 50.9148 175.559 52.5985L175.159 53.965C174.68 55.6002 173.854 57.0864 172.5 57.9121C172.725 58.3331 172.878 58.8026 172.946 59.311C173.118 60.5641 172.868 61.9143 172.516 63.1189L171.374 67.0239C171.237 67.4902 171.104 67.9759 171.019 68.4551C170.967 68.7433 170.967 69.038 171.006 69.3262C171.065 69.7504 170.915 70.1454 170.59 70.4239C170.265 70.7023 169.851 70.793 169.438 70.6732L165.865 69.6403C165.354 69.4913 165.006 69.0574 164.977 68.5264C164.951 68.0795 164.964 67.6262 165.032 67.1826C165.127 66.5641 165.328 65.8906 165.504 65.2916L166.692 61.2279C166.776 60.9397 166.994 60.0751 166.867 59.7805C166.789 59.6024 166.291 59.4308 166.129 59.3854L166.103 59.379L163.662 67.7233C163.474 68.3742 162.784 68.7498 162.13 68.562L158.619 67.5453C157.965 67.3542 157.587 66.671 157.776 66.0201L158.833 62.3968C158.362 63.4168 157.672 64.3137 156.679 64.9548C155.095 65.9748 153.201 66.0169 151.405 65.6316L145.782 64.4303C145.115 64.2878 144.688 63.6305 144.832 62.9667L145.489 59.9229C145.111 60.6936 144.594 61.3898 143.904 61.9597C142.417 63.1901 140.553 63.4492 138.682 63.2031C136.833 62.957 135.118 62.2284 134.038 60.658C132.964 59.0972 132.808 57.1706 133.055 55.3411L133.231 54.0297C133.322 53.3562 133.944 52.8835 134.621 52.9709L138.047 53.4242C138.721 53.5149 139.199 54.1334 139.108 54.8069L138.896 56.3805C138.867 56.5878 138.821 57.148 138.984 57.3228C139.072 57.4167 139.297 57.4588 139.414 57.475C139.55 57.4944 139.794 57.5139 139.908 57.4135C140.078 57.2678 140.182 56.6914 140.208 56.4874C140.299 55.8107 140.25 55.1404 139.98 54.509C139.593 53.6153 138.737 52.5985 138.099 51.87C136.993 50.6104 135.844 49.1047 135.226 47.5407C134.676 46.1549 134.543 44.6945 134.741 43.218C134.985 41.382 135.659 39.6173 137.123 38.4063C138.597 37.1888 140.442 36.9297 142.297 37.1726C144.135 37.4154 145.831 38.1505 146.895 39.7177C147.952 41.2752 148.102 43.205 147.858 45.0248L147.731 45.9768C147.64 46.647 147.018 47.123 146.341 47.0324L142.915 46.579C142.238 46.4884 141.763 45.8699 141.851 45.1964L142.01 44.0178C142.036 43.8138 142.085 43.2504 141.965 43.0625C141.89 42.9492 141.685 42.9136 141.565 42.8974C141.467 42.8845 141.259 42.8683 141.168 42.9233C140.976 43.0399 140.875 43.6033 140.849 43.7943C140.767 44.4031 140.858 44.9827 141.116 45.5429C141.522 46.443 142.368 47.4468 143.019 48.1819C144.135 49.4415 145.31 50.9698 145.902 52.5564C146.27 53.544 146.426 54.5737 146.423 55.6131L149.726 40.3297C149.869 39.6659 150.529 39.2417 151.196 39.3841L156.588 40.5369C158.336 40.9125 160.128 41.6605 161.124 43.218C162.104 44.7463 162.078 46.6211 161.71 48.3373L161.515 49.2439C161.264 50.3967 160.838 51.5688 160.076 52.4884C159.81 52.8122 159.513 53.0907 159.191 53.3238C160.21 54.768 160.285 56.6558 159.881 58.5371L159.65 59.6121V59.6153ZM154.763 46.0512L153.991 49.626L154.18 49.6649C154.385 49.7102 154.769 49.7653 154.961 49.639C155.163 49.503 155.326 48.891 155.371 48.674L155.645 47.4112C155.693 47.1878 155.801 46.5628 155.69 46.3427C155.641 46.2455 155.365 46.1743 155.277 46.1549L154.766 46.0448L154.763 46.0512ZM152.771 55.2667L151.789 59.8096L152.628 59.9877C152.732 60.0104 153.048 60.0622 153.149 59.9942C153.305 59.8614 153.455 59.2883 153.494 59.0972L153.92 57.1253C153.978 56.8565 154.131 55.9855 153.982 55.7265C153.868 55.5225 153.357 55.3865 153.155 55.3444L152.775 55.2634L152.771 55.2667ZM168.888 49.8494L167.723 53.8387L167.811 53.8646C168.013 53.9229 168.39 54.0071 168.592 53.8937C168.804 53.7739 169.012 53.1717 169.07 52.9612L169.571 51.2483C169.637 51.0281 169.786 50.4129 169.695 50.1862C169.653 50.0858 169.383 49.9952 169.295 49.9693L168.888 49.8494V49.8494ZM119.591 56.0082L120.57 36.8196C120.606 36.1429 121.188 35.6183 121.868 35.6539L127.28 35.9292C129.066 36.0198 130.953 36.4732 132.19 37.8526C133.404 39.2093 133.68 41.0582 133.592 42.8132L133.521 44.2315C133.433 45.9314 132.974 47.5699 131.848 48.6838C132.167 49.0432 132.421 49.4641 132.606 49.9434C133.065 51.122 133.134 52.4949 133.068 53.748L132.86 57.8117C132.834 58.2975 132.818 58.7993 132.844 59.2851C132.86 59.5765 132.929 59.8614 133.033 60.1367C133.189 60.5382 133.134 60.9526 132.88 61.3023C132.626 61.6488 132.245 61.8301 131.816 61.8107L128.1 61.6229C127.566 61.597 127.13 61.2538 126.977 60.7422C126.85 60.3115 126.756 59.8711 126.717 59.421C126.665 58.7993 126.707 58.0967 126.74 57.4718L126.958 53.2429C126.974 52.9418 126.984 52.0545 126.795 51.7955C126.681 51.6401 126.154 51.5883 125.985 51.5786H125.959L125.516 60.2565C125.48 60.9332 124.898 61.4578 124.218 61.4222L120.567 61.2376C120.147 61.2149 119.786 60.9883 119.578 60.6547C119.356 61.0044 118.963 61.2376 118.52 61.2311L108.55 61.1307C108.234 61.1275 107.948 61.0077 107.73 60.8102C107.512 61.0433 107.222 61.1761 106.887 61.189L103.07 61.3541C102.517 61.3768 102.029 61.0498 101.85 60.5252L99.4127 53.5084L99.7056 60.2662C99.7349 60.9429 99.2045 61.5193 98.5211 61.5484L94.8702 61.7039C94.1901 61.733 93.6109 61.2052 93.5816 60.5285L93.4059 56.5263C93.3245 57.8538 92.9503 59.1426 92.1043 60.2208C90.9394 61.7103 89.2115 62.3515 87.3633 62.5069C85.5215 62.6591 83.7026 62.3094 82.3099 61.0368C80.9204 59.7675 80.3412 57.9898 80.1883 56.1604L79.147 43.7684C78.9941 41.9487 79.2739 40.0836 80.4258 38.6103C81.5907 37.1208 83.3186 36.4796 85.1636 36.3242C87.0053 36.172 88.8243 36.5217 90.217 37.7943C91.6064 39.0636 92.1856 40.8413 92.3386 42.6707L92.5436 45.109C92.5989 45.7825 92.0913 46.3815 91.4145 46.4366L87.9685 46.7248C87.2884 46.7798 86.6897 46.2747 86.6311 45.6012L86.4066 42.933C86.3936 42.7549 86.322 42.2336 86.156 42.1138C86.0649 42.049 85.8437 42.0555 85.7428 42.0652C85.6419 42.0749 85.4207 42.1041 85.3426 42.1818C85.1961 42.3275 85.2157 42.8521 85.2319 43.0302L86.3155 55.9143C86.3285 56.0859 86.3968 56.5845 86.5563 56.6979C86.6474 56.7626 86.8784 56.7562 86.9793 56.7464C87.0802 56.7367 87.308 56.7076 87.386 56.6266C87.526 56.4874 87.5064 55.9855 87.4934 55.8139L87.1973 52.2877C87.142 51.6142 87.6496 51.0151 88.3264 50.9601L91.7724 50.6719C92.4492 50.6169 93.0512 51.122 93.1065 51.7955L93.292 54.0135L92.5696 37.396C92.5403 36.7193 93.0707 36.1429 93.7508 36.1137L97.4018 35.9551C98.0818 35.9259 98.661 36.4537 98.6903 37.1305L98.8758 41.4176L100.962 36.5023C101.154 36.0522 101.557 35.7738 102.048 35.7511L105.699 35.5957C106.142 35.5762 106.532 35.7705 106.78 36.1364C107.027 36.5023 107.063 36.9362 106.877 37.3345L103.103 45.5655L107.339 57.679L107.554 36.729C107.561 36.0522 108.124 35.505 108.804 35.5115L118.774 35.6119C119.454 35.6183 120.004 36.1785 119.997 36.8553L119.962 40.1613C119.955 40.838 119.392 41.3852 118.712 41.3788L113.636 41.327L113.597 44.9827L117.378 45.0215C118.061 45.028 118.611 45.5882 118.601 46.265L118.569 49.571C118.562 50.251 117.999 50.7982 117.319 50.7885L113.538 50.7496L113.489 55.3994L118.566 55.4512C118.989 55.4545 119.363 55.6747 119.581 56.0017L119.591 56.0082ZM126.46 41.6637L126.248 45.8116L126.339 45.8181C126.548 45.8278 126.935 45.8246 127.104 45.6659C127.283 45.5008 127.345 44.8694 127.355 44.6492L127.446 42.865C127.459 42.6351 127.462 42.0037 127.319 41.803C127.254 41.7123 126.971 41.6896 126.879 41.6831L126.456 41.6605L126.46 41.6637ZM56.6784 67.6845C54.8822 68.1831 53.0177 68.1799 51.4037 67.1599C49.793 66.14 48.9014 64.4368 48.4035 62.6558L48.0456 61.3801C47.8634 60.726 48.2506 60.046 48.9046 59.8647L52.2367 58.9451C52.894 58.7637 53.5773 59.1491 53.7596 59.7999L54.1858 61.3282C54.2412 61.529 54.4201 62.0633 54.6381 62.1604C54.7553 62.2122 54.9798 62.1637 55.0937 62.1345C55.2271 62.0989 55.4581 62.0212 55.5265 61.8819C55.6241 61.6812 55.4907 61.1113 55.4354 60.9138C55.2499 60.2565 54.944 59.6574 54.4429 59.1814C53.7368 58.5112 52.5458 57.9089 51.6738 57.4879C50.1607 56.7626 48.5109 55.8236 47.3232 54.6288C46.2689 53.5667 45.5726 52.2747 45.1723 50.8435C44.6777 49.0658 44.5964 47.1684 45.4652 45.4846C46.3405 43.7879 47.935 42.8294 49.7344 42.3308C51.5208 41.8353 53.3691 41.8483 54.9668 42.8747C56.5645 43.898 57.4496 45.6044 57.9474 47.3788L58.2045 48.3017C58.3867 48.9558 57.9995 49.6357 57.3454 49.8171L54.0134 50.7367C53.3561 50.918 52.6727 50.5327 52.4905 49.8818L52.1684 48.7356C52.1131 48.5348 51.9373 48.0005 51.7486 47.8775C51.638 47.803 51.4297 47.8483 51.3158 47.8807C51.2182 47.9066 51.023 47.9746 50.9612 48.0621C50.831 48.2434 50.9579 48.8003 51.0132 48.9881C51.1792 49.5839 51.4915 50.0761 51.9471 50.4938C52.676 51.1641 53.8507 51.7566 54.739 52.1776C56.2586 52.8997 57.9474 53.8452 59.1156 55.0724C60.1764 56.1863 60.8565 57.5559 61.2665 59.0228C61.7708 60.8296 61.8717 62.7854 60.9899 64.4983C60.1048 66.208 58.4941 67.1761 56.6751 67.6813L56.6784 67.6845ZM61.9368 45.7113L59.3922 46.1678C58.7219 46.2876 58.0776 45.844 57.9539 45.177L57.3617 41.9228C57.2413 41.2557 57.6871 40.6146 58.3574 40.4916L69.4762 38.4937C70.1465 38.3739 70.7908 38.8175 70.9145 39.4845L71.5067 42.7387C71.6271 43.4058 71.1813 44.0469 70.511 44.17L67.9664 44.6265L71.2919 62.944C71.4123 63.6111 70.9665 64.2522 70.2962 64.3752L66.6973 65.0228C66.027 65.1426 65.3827 64.699 65.2591 64.032L61.9335 45.7145L61.9368 45.7113ZM72.6651 38.2638L76.2933 37.8072C76.9701 37.723 77.5884 38.2023 77.6762 38.8758L80.5918 61.8431C80.6764 62.5166 80.1948 63.1318 79.518 63.2193L75.8898 63.6758C75.213 63.76 74.5947 63.2808 74.5069 62.6073L71.5913 39.64C71.5067 38.9664 71.9883 38.3512 72.6651 38.2638V38.2638Z" fill="#003399"/>
<path d="M56.3497 66.4964C54.6414 66.9692 53.2162 66.8429 52.0708 66.1176C50.9254 65.3923 50.1021 64.1262 49.5977 62.3226L49.2398 61.0468L52.5719 60.1272L52.9981 61.6556C53.4016 63.0997 54.2119 63.6534 55.4288 63.3167C56.0276 63.1515 56.4311 62.8504 56.6426 62.4133C56.8541 61.9761 56.8508 61.3674 56.6296 60.5806C56.3692 59.6448 55.9267 58.8806 55.2987 58.288C54.6739 57.6955 53.6457 57.0576 52.2139 56.3776C50.408 55.5033 49.0706 54.6323 48.2083 53.7613C47.3427 52.8902 46.731 51.8055 46.3698 50.5103C45.8785 48.7456 45.9435 47.2593 46.5716 46.0451C47.1996 44.8308 48.3645 43.9889 50.0728 43.5162C51.7584 43.0499 53.1706 43.1794 54.303 43.908C55.4386 44.6365 56.2554 45.9026 56.7597 47.7062L57.0168 48.629L53.688 49.5486L53.3658 48.4023C53.1543 47.6382 52.8485 47.1201 52.4515 46.8546C52.0545 46.5858 51.5696 46.534 50.9937 46.6927C49.819 47.0165 49.4318 47.8907 49.8288 49.3155C50.0533 50.1217 50.4828 50.8179 51.1173 51.3975C51.7519 51.9771 52.7834 52.6085 54.2151 53.2885C56.0438 54.1563 57.3812 55.0338 58.2273 55.921C59.0733 56.8083 59.6915 57.9545 60.082 59.3566C60.5929 61.1828 60.5311 62.7112 59.8965 63.9384C59.262 65.1656 58.0808 66.0204 56.3497 66.4964V66.4964Z" fill="#FFCC00"/>
<path d="M62.9357 44.2803L59.1741 44.957L58.5819 41.7028L69.704 39.7017L70.2929 42.9559L66.5314 43.6327L70.0782 63.1612L66.4793 63.8056L62.9357 44.2803Z" fill="#FFCC00"/>
<path d="M72.8181 39.4845L76.4462 39.028L79.3618 61.9953L75.7336 62.4518L72.8181 39.4845Z" fill="#FFCC00"/>
<path d="M87.2591 61.2702C85.515 61.4159 84.1419 61.0305 83.1429 60.1207C82.1439 59.2075 81.568 57.8508 81.4183 56.0505L80.377 43.6585C80.2241 41.8582 80.5657 40.4237 81.3988 39.3584C82.2318 38.2931 83.5203 37.6876 85.2645 37.5451C87.0086 37.3994 88.3785 37.7848 89.3807 38.6946C90.3797 39.6078 90.9557 40.9645 91.1053 42.7648L91.3103 45.2031L87.8644 45.4913L87.6399 42.8231C87.5195 41.3952 86.8524 40.7314 85.6387 40.8317C84.4249 40.9321 83.8783 41.6963 83.9987 43.1243L85.0822 56.0084C85.2026 57.4137 85.8664 58.0678 87.0802 57.9674C88.2939 57.867 88.8438 57.1125 88.7234 55.7072L88.4273 52.181L91.8733 51.8928L92.1466 55.1568C92.2995 56.9571 91.9579 58.3916 91.1249 59.4569C90.2918 60.5222 89.0033 61.1277 87.2591 61.2702V61.2702Z" fill="#FFCC00"/>
<path d="M93.8061 37.3411L97.4571 37.1825L97.8801 46.9289L102.107 36.985L105.758 36.8263L101.778 45.5042L106.828 59.9523L103.012 60.1142L99.4745 49.9403L98.1436 52.9452L98.4625 60.3117L94.8083 60.4671L93.8061 37.3411Z" fill="#FFCC00"/>
<path d="M108.794 36.7452L118.764 36.8456L118.731 40.1516L112.419 40.0901L112.354 46.2067L117.371 46.2553L117.339 49.5646L112.321 49.5128L112.246 56.6235L118.562 56.6882L118.53 59.9943L108.56 59.8939L108.794 36.7452Z" fill="#FFCC00"/>
<path d="M121.806 36.8811L127.218 37.1563C129.099 37.2502 130.449 37.7554 131.266 38.6685C132.086 39.5816 132.447 40.9416 132.356 42.7452L132.284 44.1667C132.161 46.566 131.289 48.0458 129.662 48.6028L129.658 48.6675C130.53 48.9751 131.129 49.5483 131.451 50.3804C131.773 51.2126 131.9 52.3135 131.832 53.6768L131.624 57.7405C131.588 58.401 131.585 58.9353 131.607 59.3465C131.63 59.7578 131.721 60.1625 131.878 60.5705L128.161 60.3827C128.048 60.0006 127.976 59.6444 127.95 59.3109C127.924 58.9774 127.93 58.3816 127.976 57.5235L128.194 53.2947C128.249 52.2391 128.116 51.4911 127.794 51.0539C127.472 50.6168 126.889 50.3804 126.05 50.3351L124.79 50.2703L124.283 60.1787L120.632 59.9941L121.813 36.8746L121.806 36.8811ZM126.281 47.042C127.01 47.0777 127.569 46.919 127.953 46.5628C128.337 46.2066 128.552 45.5882 128.598 44.7074L128.689 42.9233C128.731 42.0879 128.614 41.4726 128.334 41.0841C128.054 40.6955 127.592 40.485 126.951 40.4527L125.291 40.3685L124.953 46.974L126.281 47.042V47.042Z" fill="#FFCC00"/>
<path d="M138.851 61.9794C137.094 61.7463 135.831 61.0727 135.063 59.9589C134.295 58.845 134.035 57.3587 134.285 55.5001L134.461 54.1887L137.888 54.642L137.676 56.2157C137.478 57.702 138.005 58.5277 139.258 58.6928C139.873 58.7737 140.364 58.6572 140.728 58.3366C141.096 58.0193 141.334 57.4559 141.441 56.6464C141.571 55.6847 141.464 54.8072 141.122 54.0203C140.78 53.2302 140.087 52.2426 139.036 51.0575C137.718 49.5486 136.833 48.2243 136.384 47.0845C135.932 45.9447 135.795 44.711 135.974 43.3769C136.218 41.5636 136.866 40.2198 137.923 39.3488C138.978 38.4778 140.387 38.1572 142.141 38.3904C143.875 38.6203 145.121 39.2905 145.876 40.4044C146.634 41.5183 146.885 43.0013 146.638 44.8599L146.511 45.8119L143.084 45.3586L143.24 44.18C143.345 43.3931 143.27 42.8006 143.009 42.399C142.749 41.9975 142.323 41.7579 141.731 41.6802C140.523 41.5215 139.82 42.1724 139.625 43.636C139.515 44.4649 139.635 45.2712 139.99 46.0515C140.344 46.8319 141.044 47.8163 142.092 49.0014C143.432 50.5135 144.314 51.8411 144.744 52.9906C145.17 54.1369 145.29 55.4321 145.095 56.873C144.845 58.7511 144.184 60.1337 143.117 61.0145C142.049 61.8952 140.624 62.219 138.848 61.9826L138.851 61.9794Z" fill="#FFCC00"/>
<path d="M150.939 40.5886L156.331 41.7413C158.173 42.1363 159.422 42.8487 160.083 43.8816C160.744 44.9146 160.883 46.3134 160.503 48.0814L160.307 48.988C160.057 50.1537 159.663 51.0603 159.123 51.7112C158.586 52.362 157.893 52.7668 157.044 52.9222L157.031 52.987C158.677 53.9713 159.224 55.7328 158.674 58.2779L158.254 60.2175C157.877 61.9628 157.128 63.1964 156.009 63.9153C154.89 64.6341 153.442 64.8025 151.668 64.4237L146.045 63.2224L150.936 40.5918L150.939 40.5886ZM153.92 50.8661C154.636 51.0182 155.212 50.9502 155.648 50.6588C156.084 50.3706 156.396 49.7943 156.582 48.9297L156.855 47.6701C157.031 46.8509 157.014 46.226 156.8 45.7985C156.588 45.3711 156.165 45.0894 155.537 44.9534L153.816 44.5843L152.524 50.5649L153.92 50.8628V50.8661ZM152.368 61.1889C152.996 61.3249 153.497 61.2569 153.874 60.9849C154.249 60.7161 154.525 60.1721 154.704 59.3529L155.13 57.381C155.355 56.348 155.332 55.5903 155.059 55.1176C154.789 54.6416 154.242 54.3178 153.419 54.1397L151.828 53.7997L150.324 60.7517L152.371 61.1889H152.368Z" fill="#FFCC00"/>
<path d="M165.465 44.131L170.665 45.6367C172.474 46.1613 173.668 46.9611 174.254 48.0361C174.84 49.1111 174.879 50.5197 174.371 52.2553L173.974 53.6217C173.301 55.9304 172.106 57.1673 170.395 57.339L170.375 57.4037C171.153 57.9056 171.602 58.5985 171.722 59.4825C171.846 60.3665 171.713 61.4674 171.332 62.7788L170.19 66.6839C170.004 67.3185 169.874 67.8366 169.803 68.2414C169.731 68.6461 169.724 69.0606 169.783 69.4913L166.21 68.4583C166.187 68.0633 166.2 67.6974 166.252 67.3671C166.301 67.0368 166.448 66.4605 166.688 65.6348L167.876 61.571C168.172 60.5543 168.215 59.7966 168.003 59.3012C167.792 58.8025 167.281 58.4366 166.47 58.2035L165.257 57.8538L162.471 67.3801L158.96 66.3633L165.458 44.1343L165.465 44.131ZM167.466 55.0432C168.169 55.2472 168.748 55.218 169.204 54.9622C169.659 54.7032 170.011 54.1495 170.258 53.3044L170.759 51.5915C170.993 50.7884 171.02 50.1635 170.837 49.7199C170.655 49.2763 170.255 48.9654 169.64 48.7873L168.045 48.3243L166.187 54.6741L167.463 55.0432H167.466Z" fill="#FFCC00"/>
<path d="M56.3497 66.4963C54.6414 66.9691 53.2161 66.8428 52.0707 66.1175C50.9253 65.3922 50.1021 64.1261 49.5977 62.3225L49.2398 61.0467L52.5718 60.1271L52.9981 61.6555C53.4016 63.0996 54.2118 63.6533 55.4288 63.3166C56.0275 63.1514 56.431 62.8503 56.6426 62.4132C56.8541 61.976 56.8508 61.3673 56.6295 60.5805C56.3692 59.6447 55.9267 58.8805 55.2987 58.2879C54.97 57.9771 54.5307 57.6533 53.9841 57.3198C55.79 57.5076 57.6187 57.6468 59.4768 57.7375C59.7175 58.2296 59.9193 58.7704 60.082 59.3532C60.5929 61.1795 60.531 62.7078 59.8965 63.935C59.262 65.1623 58.0808 66.0171 56.3497 66.4931V66.4963Z" fill="#FFFF00"/>
<path d="M69.1118 57.8413L70.0782 63.1614L66.4793 63.809L65.4055 57.8866C66.6322 57.8866 67.8687 57.8737 69.1118 57.8445V57.8413Z" fill="#FFFF00"/>
<path d="M78.7728 57.3489L79.3617 61.9954L75.7336 62.452L75.1153 57.5917C76.329 57.5205 77.546 57.4395 78.7695 57.3489H78.7728Z" fill="#FFFF00"/>
<path d="M87.2591 61.27C85.515 61.4157 84.1418 61.0304 83.1429 60.1205C82.3522 59.3984 81.8283 58.4011 81.5679 57.1253C82.7849 57.0217 84.0052 56.9084 85.2254 56.7886C85.4987 57.6531 86.117 58.0482 87.0802 57.9672C88.0661 57.8863 88.6128 57.3714 88.7202 56.4291C89.8721 56.3061 91.0272 56.1766 92.1824 56.0438C92.1694 57.4362 91.8147 58.5727 91.1248 59.4567C90.2918 60.522 89.0033 61.1275 87.2591 61.27V61.27Z" fill="#FFFF00"/>
<path d="M104.912 54.4734L106.828 59.9521L103.012 60.1173L101.212 54.9429C102.449 54.7875 103.682 54.6288 104.912 54.4734ZM98.2445 55.3153L98.4625 60.3116L94.8116 60.4702L94.6066 55.7621C95.8203 55.6164 97.034 55.4675 98.2445 55.3185V55.3153Z" fill="#FFFF00"/>
<path d="M112.279 53.5476L112.246 56.6237L118.559 56.6885L118.526 59.9945L108.556 59.8941L108.615 54.0042C109.838 53.8487 111.059 53.6966 112.276 53.5476H112.279Z" fill="#FFFF00"/>
<path d="M131.76 51.6177C131.848 52.2199 131.871 52.9064 131.832 53.6803L131.624 57.744C131.588 58.4046 131.585 58.9389 131.607 59.3501C131.63 59.7613 131.721 60.1661 131.878 60.5741L128.162 60.3863C128.048 60.0042 127.976 59.648 127.95 59.3145C127.924 58.9809 127.93 58.3852 127.976 57.5271L128.194 53.2982C128.223 52.738 128.197 52.2653 128.122 51.88C129.346 51.7828 130.56 51.6922 131.764 51.6177H131.76ZM124.686 52.1746L124.276 60.1855L120.625 60.0009L121.006 52.5438C122.239 52.4142 123.466 52.2879 124.686 52.1746V52.1746Z" fill="#FFFF00"/>
<path d="M138.851 61.9793C137.094 61.7462 135.831 61.0727 135.063 59.9588C134.295 58.8449 134.035 57.3587 134.285 55.5L134.461 54.1886L137.888 54.642L137.676 56.2156C137.478 57.7019 138.005 58.5276 139.258 58.6927C139.873 58.7737 140.364 58.6571 140.728 58.3365C141.096 58.0192 141.334 57.4558 141.441 56.6463C141.571 55.6846 141.464 54.8071 141.122 54.0203C140.806 53.2885 140.185 52.3851 139.261 51.3133C140.829 51.2906 142.375 51.2971 143.901 51.3359C144.275 51.922 144.558 52.4692 144.747 52.9841C145.173 54.1304 145.294 55.4256 145.098 56.8665C144.848 58.7445 144.187 60.1272 143.12 61.0079C142.053 61.8887 140.627 62.2125 138.851 61.9761V61.9793Z" fill="#FFFF00"/>
<path d="M157.555 52.7964C157.392 52.8515 157.223 52.8936 157.047 52.9259L157.034 52.9907C158.68 53.9751 159.227 55.7366 158.677 58.2816L158.257 60.2212C157.88 61.9665 157.132 63.2002 156.012 63.919C154.893 64.6379 153.445 64.8063 151.671 64.4274L146.049 63.2261L148.567 51.5724C151.688 51.8023 154.691 52.2006 157.555 52.7997V52.7964ZM152.371 61.1926C152.999 61.3286 153.5 61.2606 153.878 60.9886C154.252 60.7199 154.528 60.1759 154.707 59.3567L155.134 57.3847C155.358 56.3518 155.335 55.5941 155.062 55.1213C154.792 54.6453 154.245 54.3215 153.422 54.1434L151.831 53.8034L150.328 60.7555L152.374 61.1926H152.371Z" fill="#FFFF00"/>
<path d="M170.971 57.883C171.387 58.3169 171.641 58.848 171.726 59.4761C171.849 60.3601 171.716 61.461 171.335 62.7724L170.193 66.6775C170.008 67.3122 169.877 67.8302 169.806 68.235C169.734 68.6397 169.728 69.0542 169.786 69.4849L166.213 68.4519C166.191 68.0569 166.204 67.691 166.256 67.3607C166.304 67.0304 166.451 66.4541 166.692 65.6284L167.879 61.5647C168.176 60.5479 168.218 59.7902 168.006 59.2948C167.795 58.7961 167.284 58.4303 166.474 58.1971L165.26 57.8474L162.475 67.3737L158.964 66.3569L162.546 54.0978C165.559 55.0562 168.374 56.2996 170.964 57.8798L170.971 57.883Z" fill="#FFFF00"/>
</g>
<defs>
<clipPath id="clip0">
<rect width="178" height="106" fill="white"/>
</clipPath>
</defs>
</svg>
