<svg width="657" height="450" viewBox="0 0 657 450" fill="none" xmlns="http://www.w3.org/2000/svg">
<path fill-rule="evenodd" clip-rule="evenodd" d="M630.672 0C618.126 10.7712 606.054 24.4974 594.256 42.761C558.647 97.8804 528.996 108.7 504.164 106.212C453.068 101.092 469.414 140.914 428.795 150.102C348.541 172.601 315.382 144.063 276.499 177.913C234.982 214.056 245.466 266.088 194.734 289.698C118.047 325.383 62.3304 320.226 11.6548 398.668C-4.41482 423.542 -19.2589 439.258 -33 448.851V0H630.672Z" fill="#00CCFF"/>
<path d="M652.893 0H656.81C654.22 1.77946 651.68 3.63428 649.192 5.56785L647.81 3.79063C649.483 2.49035 651.177 1.22718 652.893 0V0ZM-8.91714 450H-12.2843C-7.48563 445.775 -3.04367 441.204 1.18896 436.396L2.88156 437.879C-0.868274 442.131 -4.75878 446.189 -8.91714 450V450ZM7.2695 432.696C12.0277 426.85 16.4989 420.786 20.7158 414.539L18.8499 413.281C14.6454 419.479 10.2518 425.467 5.52288 431.276L7.2695 432.696ZM24.4521 408.89L22.5614 407.671C26.6973 401.312 30.9862 395.226 35.6881 389.271L37.4505 390.67C32.7958 396.561 28.5441 402.598 24.4521 408.89V408.89ZM41.7068 385.482C46.5347 379.775 51.6936 374.434 57.2024 369.384L55.6876 367.722C50.1101 372.822 44.8759 378.255 39.9939 384.024L41.7068 385.482V385.482ZM62.2487 364.98C67.95 360.232 74.0215 355.784 80.344 351.896L79.1601 349.981C72.6789 354.06 66.6997 358.344 60.8127 363.247L62.2487 364.98ZM86.1061 348.467C92.6334 344.773 99.2845 341.534 106.162 338.545L105.271 336.48C98.3291 339.483 91.5834 342.782 85.0009 346.508L86.1061 348.467V348.467ZM112.366 335.95C119.327 333.134 126.334 330.628 133.406 328.116L132.665 325.992C125.564 328.485 118.503 331.04 111.524 333.865L112.366 335.95V335.95ZM139.782 325.911C146.877 323.466 153.989 321.078 161.075 318.602L160.332 316.479C153.25 318.953 146.142 321.339 139.051 323.783L139.782 325.911V325.911ZM167.45 316.345C174.527 313.806 181.56 311.151 188.525 308.323L187.677 306.239C180.737 309.055 173.737 311.698 166.687 314.228L167.45 316.345ZM194.778 305.725C201.58 302.842 208.879 299.772 215.209 295.947L214.036 294.026C207.84 297.789 200.562 300.829 193.894 303.656L194.778 305.725V305.725ZM220.91 292.16C227.024 287.746 232.533 282.137 237.003 276.074L235.191 274.74C230.784 280.662 225.576 286.016 219.58 290.345L220.91 292.16V292.16ZM240.857 270.431C244.905 263.966 248.131 257.258 251.217 250.299L249.157 249.392C246.02 256.308 242.997 262.774 238.95 269.236L240.857 270.431ZM253.901 244.092C256.818 237.209 259.726 230.31 263.017 223.596L261 222.599C257.649 229.179 254.719 236.394 251.83 243.21L253.901 244.092V244.092ZM266.093 217.641C269.676 211.052 273.69 204.946 278.483 199.168L276.757 197.726C271.865 203.629 267.778 209.832 264.119 216.561L266.093 217.641V217.641ZM282.932 194.203C288.096 188.841 293.742 184.102 300.122 180.247L298.972 178.315C292.493 182.173 286.537 187.217 281.316 192.637L282.932 194.203V194.203ZM305.983 177.14C312.863 173.975 319.759 172.229 327.261 171.324L326.991 169.09C319.204 170.051 312.193 171.811 305.044 175.095L305.983 177.14V177.14ZM333.918 170.727C341.358 170.298 348.889 170.347 356.341 170.456L356.363 168.206C348.854 168.099 341.282 168.051 333.783 168.482L333.918 170.727ZM363.099 170.509C370.65 170.509 378.124 170.444 385.667 170.006L385.539 167.761C378.021 168.17 370.632 168.259 363.11 168.259L363.099 170.509ZM392.433 169.535C399.927 168.926 407.447 167.968 414.852 166.668L414.461 164.452C407.166 165.76 399.631 166.693 392.244 167.294L392.433 169.535ZM421.518 165.413C428.068 164.102 434.557 162.507 440.991 160.713C441.818 160.525 442.65 160.325 443.466 160.096L442.86 157.93C435.694 159.906 428.357 161.749 421.068 163.209L421.518 165.413V165.413ZM449.985 157.853C457.395 154.804 462.975 149.922 467.857 143.684L466.074 142.31C461.549 148.196 456.023 152.935 449.101 155.784L449.985 157.853ZM471.834 138.147C476.092 131.885 479.797 125.965 486.261 121.688L485.039 119.801C478.308 124.198 474.386 130.392 469.972 136.882L471.834 138.147ZM492.064 118.803C498.821 116.326 506.718 116.072 513.819 116.664L514.004 114.421C506.463 113.845 498.477 114.056 491.303 116.686L492.064 118.803V118.803ZM520.613 117.159C528.493 117.344 535.678 116.237 543.127 113.63L542.377 111.509C535.239 114.028 528.232 115.088 520.676 114.909L520.613 117.159ZM549.476 111.026C556.31 107.853 562.772 103.481 568.57 98.6937L567.129 96.9637L566.749 97.2776C561.175 101.825 555.056 105.954 548.517 108.99L549.476 111.026ZM573.697 94.2136C579.229 89.162 584.402 83.4603 589.167 77.6866L587.429 76.2581C582.711 81.9587 577.637 87.5681 572.169 92.5623L573.697 94.2136V94.2136ZM593.398 72.382C598.009 66.4171 602.313 60.2486 606.434 53.9384L604.546 52.7123C600.479 58.9685 596.179 65.1033 591.616 71.0075L593.398 72.382ZM610.134 48.3244C614.339 42.1357 618.768 36.1719 623.578 30.4387L621.859 28.9877C617.003 34.7512 612.509 40.8241 608.275 47.0556L610.134 48.3244V48.3244ZM627.984 25.3736C632.942 19.8384 638.335 14.6147 643.991 9.79603L642.537 8.07956C636.807 12.9478 631.33 18.2659 626.314 23.8664L627.984 25.3736Z" fill="#FDFEFF"/>
</svg>
